{
    "asset" : {
        "generator" : "Khronos glTF Blender I/O v3.4.50",
        "version" : "2.0"
    },
    "scene" : 0,
    "scenes" : [
        {
            "name" : "Scene",
            "nodes" : [
                0,
                1,
                2,
                3
            ]
        }
    ],
    "nodes" : [
        {
            "mesh" : 0,
            "name" : "body",
            "scale" : [
                1.2999999523162842,
                2,
                1
            ]
        },
        {
            "mesh" : 1,
            "name" : "drawer top",
            "scale" : [
                1.306999921798706,
                0.8569998741149902,
                1
            ],
            "translation" : [
                1.341999888420105,
                1.229780673980713,
                -0.003000000026077032
            ]
        },
        {
            "mesh" : 2,
            "name" : "drawer bot",
            "scale" : [
                1.306999921798706,
                0.8569998741149902,
                1
            ],
            "translation" : [
                1.341999888420105,
                -0.7294514179229736,
                -0.003000000026077032
            ]
        },
        {
            "mesh" : 3,
            "name" : "lamp",
            "rotation" : [
                0,
                -0.43007713556289673,
                0,
                0.9027921557426453
            ],
            "scale" : [
                0.5099999904632568,
                2,
                0.40000003576278687
            ],
            "translation" : [
                -0.9019983410835266,
                2.070392608642578,
                0.6223644018173218
            ]
        }
    ],
    "animations" : [
        {
            "channels" : [
                {
                    "sampler" : 0,
                    "target" : {
                        "node" : 1,
                        "path" : "translation"
                    }
                },
                {
                    "sampler" : 1,
                    "target" : {
                        "node" : 1,
                        "path" : "rotation"
                    }
                },
                {
                    "sampler" : 2,
                    "target" : {
                        "node" : 1,
                        "path" : "scale"
                    }
                }
            ],
            "name" : "drawer topAction",
            "samplers" : [
                {
                    "input" : 22,
                    "interpolation" : "LINEAR",
                    "output" : 23
                },
                {
                    "input" : 22,
                    "interpolation" : "LINEAR",
                    "output" : 24
                },
                {
                    "input" : 22,
                    "interpolation" : "LINEAR",
                    "output" : 25
                }
            ]
        },
        {
            "channels" : [
                {
                    "sampler" : 0,
                    "target" : {
                        "node" : 2,
                        "path" : "translation"
                    }
                },
                {
                    "sampler" : 1,
                    "target" : {
                        "node" : 2,
                        "path" : "rotation"
                    }
                },
                {
                    "sampler" : 2,
                    "target" : {
                        "node" : 2,
                        "path" : "scale"
                    }
                }
            ],
            "name" : "drawer botAction",
            "samplers" : [
                {
                    "input" : 22,
                    "interpolation" : "LINEAR",
                    "output" : 26
                },
                {
                    "input" : 22,
                    "interpolation" : "LINEAR",
                    "output" : 27
                },
                {
                    "input" : 22,
                    "interpolation" : "LINEAR",
                    "output" : 28
                }
            ]
        }
    ],
    "materials" : [
        {
            "doubleSided" : true,
            "name" : "shell",
            "pbrMetallicRoughness" : {
                "baseColorFactor" : [
                    0.1614547222852707,
                    0.1574506163597107,
                    0.1556934416294098,
                    1
                ],
                "metallicFactor" : 0,
                "roughnessFactor" : 0.5
            }
        },
        {
            "doubleSided" : true,
            "name" : "metal",
            "pbrMetallicRoughness" : {
                "baseColorFactor" : [
                    0.800000011920929,
                    0.800000011920929,
                    0.800000011920929,
                    1
                ],
                "roughnessFactor" : 0.2768595218658447
            }
        },
        {
            "doubleSided" : true,
            "name" : "lamp",
            "pbrMetallicRoughness" : {
                "baseColorFactor" : [
                    0.8000000715255737,
                    0,
                    0.0003144959919154644,
                    1
                ],
                "metallicFactor" : 0,
                "roughnessFactor" : 0.5
            }
        }
    ],
    "meshes" : [
        {
            "name" : "Cube.012",
            "primitives" : [
                {
                    "attributes" : {
                        "POSITION" : 0,
                        "TEXCOORD_0" : 1,
                        "NORMAL" : 2
                    },
                    "indices" : 3,
                    "material" : 0
                }
            ]
        },
        {
            "name" : "drawer top.008",
            "primitives" : [
                {
                    "attributes" : {
                        "POSITION" : 4,
                        "TEXCOORD_0" : 5,
                        "NORMAL" : 6
                    },
                    "indices" : 7,
                    "material" : 0
                },
                {
                    "attributes" : {
                        "POSITION" : 8,
                        "TEXCOORD_0" : 9,
                        "NORMAL" : 10
                    },
                    "indices" : 11,
                    "material" : 1
                }
            ]
        },
        {
            "name" : "drawer top.010",
            "primitives" : [
                {
                    "attributes" : {
                        "POSITION" : 12,
                        "TEXCOORD_0" : 13,
                        "NORMAL" : 14
                    },
                    "indices" : 7,
                    "material" : 0
                },
                {
                    "attributes" : {
                        "POSITION" : 15,
                        "TEXCOORD_0" : 16,
                        "NORMAL" : 17
                    },
                    "indices" : 11,
                    "material" : 1
                }
            ]
        },
        {
            "name" : "Cube.002",
            "primitives" : [
                {
                    "attributes" : {
                        "POSITION" : 18,
                        "TEXCOORD_0" : 19,
                        "NORMAL" : 20
                    },
                    "indices" : 21,
                    "material" : 2
                }
            ]
        }
    ],
    "accessors" : [
        {
            "bufferView" : 0,
            "componentType" : 5126,
            "count" : 144,
            "max" : [
                1,
                1,
                1
            ],
            "min" : [
                -1,
                -1,
                -1
            ],
            "type" : "VEC3"
        },
        {
            "bufferView" : 1,
            "componentType" : 5126,
            "count" : 144,
            "type" : "VEC2"
        },
        {
            "bufferView" : 2,
            "componentType" : 5126,
            "count" : 144,
            "type" : "VEC3"
        },
        {
            "bufferView" : 3,
            "componentType" : 5123,
            "count" : 246,
            "type" : "SCALAR"
        },
        {
            "bufferView" : 4,
            "componentType" : 5126,
            "count" : 89,
            "max" : [
                0.08264665305614471,
                0.6829646229743958,
                0.8975219130516052
            ],
            "min" : [
                -1.8689531087875366,
                -1.2757306098937988,
                -0.9033189415931702
            ],
            "type" : "VEC3"
        },
        {
            "bufferView" : 5,
            "componentType" : 5126,
            "count" : 89,
            "type" : "VEC2"
        },
        {
            "bufferView" : 6,
            "componentType" : 5126,
            "count" : 89,
            "type" : "VEC3"
        },
        {
            "bufferView" : 7,
            "componentType" : 5123,
            "count" : 153,
            "type" : "SCALAR"
        },
        {
            "bufferView" : 8,
            "componentType" : 5126,
            "count" : 58,
            "max" : [
                0.08264665305614471,
                0.16778218746185303,
                0.18411843478679657
            ],
            "min" : [
                1.1920928955078125e-07,
                0.12640857696533203,
                -0.18750476837158203
            ],
            "type" : "VEC3"
        },
        {
            "bufferView" : 9,
            "componentType" : 5126,
            "count" : 58,
            "type" : "VEC2"
        },
        {
            "bufferView" : 10,
            "componentType" : 5126,
            "count" : 58,
            "type" : "VEC3"
        },
        {
            "bufferView" : 11,
            "componentType" : 5123,
            "count" : 90,
            "type" : "SCALAR"
        },
        {
            "bufferView" : 12,
            "componentType" : 5126,
            "count" : 89,
            "max" : [
                0.08264665305614471,
                0.6829646229743958,
                0.8975219130516052
            ],
            "min" : [
                -1.8689531087875366,
                -1.2757306098937988,
                -0.9033189415931702
            ],
            "type" : "VEC3"
        },
        {
            "bufferView" : 13,
            "componentType" : 5126,
            "count" : 89,
            "type" : "VEC2"
        },
        {
            "bufferView" : 14,
            "componentType" : 5126,
            "count" : 89,
            "type" : "VEC3"
        },
        {
            "bufferView" : 15,
            "componentType" : 5126,
            "count" : 58,
            "max" : [
                0.08264665305614471,
                0.16778218746185303,
                0.18411843478679657
            ],
            "min" : [
                1.1920928955078125e-07,
                0.12640857696533203,
                -0.18750476837158203
            ],
            "type" : "VEC3"
        },
        {
            "bufferView" : 16,
            "componentType" : 5126,
            "count" : 58,
            "type" : "VEC2"
        },
        {
            "bufferView" : 17,
            "componentType" : 5126,
            "count" : 58,
            "type" : "VEC3"
        },
        {
            "bufferView" : 18,
            "componentType" : 5126,
            "count" : 244,
            "max" : [
                0.45784905552864075,
                0.5506860613822937,
                0.8330055475234985
            ],
            "min" : [
                -0.45785439014434814,
                -0.04158450663089752,
                -0.936277449131012
            ],
            "type" : "VEC3"
        },
        {
            "bufferView" : 19,
            "componentType" : 5126,
            "count" : 244,
            "type" : "VEC2"
        },
        {
            "bufferView" : 20,
            "componentType" : 5126,
            "count" : 244,
            "type" : "VEC3"
        },
        {
            "bufferView" : 21,
            "componentType" : 5123,
            "count" : 1332,
            "type" : "SCALAR"
        },
        {
            "bufferView" : 22,
            "componentType" : 5126,
            "count" : 251,
            "max" : [
                10.416666666666666
            ],
            "min" : [
                0
            ],
            "type" : "SCALAR"
        },
        {
            "bufferView" : 23,
            "componentType" : 5126,
            "count" : 251,
            "type" : "VEC3"
        },
        {
            "bufferView" : 24,
            "componentType" : 5126,
            "count" : 251,
            "type" : "VEC4"
        },
        {
            "bufferView" : 25,
            "componentType" : 5126,
            "count" : 251,
            "type" : "VEC3"
        },
        {
            "bufferView" : 26,
            "componentType" : 5126,
            "count" : 251,
            "type" : "VEC3"
        },
        {
            "bufferView" : 27,
            "componentType" : 5126,
            "count" : 251,
            "type" : "VEC4"
        },
        {
            "bufferView" : 28,
            "componentType" : 5126,
            "count" : 251,
            "type" : "VEC3"
        }
    ],
    "bufferViews" : [
        {
            "buffer" : 0,
            "byteLength" : 1728,
            "byteOffset" : 0,
            "target" : 34962
        },
        {
            "buffer" : 0,
            "byteLength" : 1152,
            "byteOffset" : 1728,
            "target" : 34962
        },
        {
            "buffer" : 0,
            "byteLength" : 1728,
            "byteOffset" : 2880,
            "target" : 34962
        },
        {
            "buffer" : 0,
            "byteLength" : 492,
            "byteOffset" : 4608,
            "target" : 34963
        },
        {
            "buffer" : 0,
            "byteLength" : 1068,
            "byteOffset" : 5100,
            "target" : 34962
        },
        {
            "buffer" : 0,
            "byteLength" : 712,
            "byteOffset" : 6168,
            "target" : 34962
        },
        {
            "buffer" : 0,
            "byteLength" : 1068,
            "byteOffset" : 6880,
            "target" : 34962
        },
        {
            "buffer" : 0,
            "byteLength" : 306,
            "byteOffset" : 7948,
            "target" : 34963
        },
        {
            "buffer" : 0,
            "byteLength" : 696,
            "byteOffset" : 8256,
            "target" : 34962
        },
        {
            "buffer" : 0,
            "byteLength" : 464,
            "byteOffset" : 8952,
            "target" : 34962
        },
        {
            "buffer" : 0,
            "byteLength" : 696,
            "byteOffset" : 9416,
            "target" : 34962
        },
        {
            "buffer" : 0,
            "byteLength" : 180,
            "byteOffset" : 10112,
            "target" : 34963
        },
        {
            "buffer" : 0,
            "byteLength" : 1068,
            "byteOffset" : 10292,
            "target" : 34962
        },
        {
            "buffer" : 0,
            "byteLength" : 712,
            "byteOffset" : 11360,
            "target" : 34962
        },
        {
            "buffer" : 0,
            "byteLength" : 1068,
            "byteOffset" : 12072,
            "target" : 34962
        },
        {
            "buffer" : 0,
            "byteLength" : 696,
            "byteOffset" : 13140,
            "target" : 34962
        },
        {
            "buffer" : 0,
            "byteLength" : 464,
            "byteOffset" : 13836,
            "target" : 34962
        },
        {
            "buffer" : 0,
            "byteLength" : 696,
            "byteOffset" : 14300,
            "target" : 34962
        },
        {
            "buffer" : 0,
            "byteLength" : 2928,
            "byteOffset" : 14996,
            "target" : 34962
        },
        {
            "buffer" : 0,
            "byteLength" : 1952,
            "byteOffset" : 17924,
            "target" : 34962
        },
        {
            "buffer" : 0,
            "byteLength" : 2928,
            "byteOffset" : 19876,
            "target" : 34962
        },
        {
            "buffer" : 0,
            "byteLength" : 2664,
            "byteOffset" : 22804,
            "target" : 34963
        },
        {
            "buffer" : 0,
            "byteLength" : 1004,
            "byteOffset" : 25468
        },
        {
            "buffer" : 0,
            "byteLength" : 3012,
            "byteOffset" : 26472
        },
        {
            "buffer" : 0,
            "byteLength" : 4016,
            "byteOffset" : 29484
        },
        {
            "buffer" : 0,
            "byteLength" : 3012,
            "byteOffset" : 33500
        },
        {
            "buffer" : 0,
            "byteLength" : 3012,
            "byteOffset" : 36512
        },
        {
            "buffer" : 0,
            "byteLength" : 4016,
            "byteOffset" : 39524
        },
        {
            "buffer" : 0,
            "byteLength" : 3012,
            "byteOffset" : 43540
        }
    ],
    "buffers" : [
        {
            "byteLength" : 46552,
            "uri" : "data:application/octet-stream;base64,"
        }
    ]
}
